<?xml version="1.0" standalone="no"?>
<!DOCTYPE svg PUBLIC "-//W3C//DTD SVG 20010904//EN"
 "http://www.w3.org/TR/2001/REC-SVG-20010904/DTD/svg10.dtd">
<svg version="1.0" xmlns="http://www.w3.org/2000/svg"
 width="280.000000pt" height="280.000000pt" viewBox="0 0 280.000000 280.000000"
 preserveAspectRatio="xMidYMid meet">

<g transform="translate(0.000000,280.000000) scale(0.100000,-0.100000)"
fill="#000000" stroke="none">
<path d="M963 2448 c-18 -40 -45 -105 -62 -145 -17 -39 -31 -74 -31 -77 0 -3
-11 -29 -24 -58 -13 -29 -44 -102 -69 -163 -25 -60 -86 -209 -137 -330 -51
-121 -116 -278 -145 -350 -51 -125 -125 -302 -165 -395 -11 -25 -38 -90 -60
-145 -22 -55 -49 -120 -60 -145 -63 -148 -110 -262 -110 -270 0 -6 85 -10 215
-10 246 0 223 -9 269 106 71 174 138 337 164 399 33 76 115 274 167 400 18 44
63 152 100 240 37 88 87 210 112 270 24 61 51 124 58 140 12 28 31 73 132 315
19 47 41 99 48 115 27 62 65 159 65 167 0 4 -98 8 -218 8 l-218 0 -31 -72z"/>
<path d="M1613 2508 c-6 -7 -52 -114 -103 -238 -109 -263 -139 -334 -181 -432
-16 -40 -36 -89 -44 -109 -7 -20 -25 -62 -39 -93 -14 -31 -26 -59 -26 -63 0
-4 -13 -36 -30 -72 -25 -57 -95 -223 -215 -516 -52 -126 -134 -323 -167 -400
-37 -88 -88 -215 -88 -221 0 -3 39 -3 87 -2 l87 3 24 60 c13 33 46 112 72 175
45 106 171 409 225 540 12 30 41 100 65 155 23 55 48 116 55 135 7 19 30 73
50 120 20 47 61 144 90 215 30 72 68 164 85 205 18 41 52 122 75 180 24 58 65
155 90 215 71 166 72 155 -23 155 -52 0 -83 -4 -89 -12z"/>
<path d="M2151 2509 c-30 -5 -82 -25 -116 -44 -144 -80 -217 -224 -202 -393
13 -135 118 -274 244 -322 323 -124 633 174 524 502 -28 84 -113 181 -193 220
-47 23 -160 50 -193 47 -5 -1 -34 -5 -64 -10z"/>
</g>
</svg>
