<svg width="122" height="48" viewBox="0 0 122 48" fill="none" xmlns="http://www.w3.org/2000/svg">
<path d="M4.12719 8.27051C1.84797 8.27051 0 6.41885 0 4.13571C0 1.85131 1.84797 0.000286102 4.12719 0.000286102C6.40641 0.000286102 8.25375 1.85131 8.25375 4.13571C8.25375 6.41885 6.40641 8.27051 4.12719 8.27051Z" fill="#B466FB"/>
<path d="M47.9863 12.5014C41.397 13.1085 35.9263 17.5927 33.8816 23.6619L37.4993 27.7739L43.0477 34.0687C41.9336 32.6624 41.2684 30.8802 41.2684 28.9458C41.2684 24.3783 44.9643 20.6756 49.5222 20.6756C54.08 20.6756 57.7765 24.3783 57.7765 28.9458C57.7765 33.3472 54.3416 36.9494 50.0133 37.2021C56.6202 36.9494 61.9031 31.4962 61.9031 24.8104C61.9031 18.5296 57.2438 13.3378 51.1955 12.5204C51.1867 12.5159 51.1728 12.5159 51.1595 12.5159C50.6135 12.461 50.0631 12.4326 49.5089 12.4326C48.9951 12.4326 48.4863 12.4559 47.9863 12.5014Z" fill="url(#paint0_linear_2784_18384)"/>
<path d="M0.0463867 12.4051V45.4399H15.494C15.8295 45.4721 16.1636 45.4854 16.5079 45.4854C17.1951 45.4854 17.8647 45.431 18.521 45.3205C24.8991 44.5573 30.1542 40.1471 32.1484 34.2251L37.0228 39.7611L37.1419 39.8944C40.1639 43.3222 44.5842 45.4854 49.509 45.4854C58.6196 45.4854 66.0026 38.0882 66.0026 28.9594C66.0026 20.3992 59.5143 13.3647 51.1956 12.5201C57.2439 13.3376 61.9032 18.5293 61.9032 24.8101C61.9032 31.4953 56.6203 36.9492 50.0134 37.2019C49.8526 37.2107 49.6874 37.2158 49.5222 37.2158C49.357 37.2158 49.1919 37.2107 49.0317 37.2019C46.8218 37.073 44.8402 36.0672 43.438 34.5327C43.3006 34.3849 43.1669 34.2295 43.0477 34.0684L37.4994 27.7736L33.8817 23.6616L29.2822 18.4421L29.2551 18.4105C26.2332 14.7438 21.6615 12.4051 16.5444 12.4051H0.0463867ZM8.25412 28.9455C8.25412 24.5435 11.6884 20.9419 16.0167 20.6886C16.1781 20.6797 16.3427 20.6753 16.5079 20.6753C16.6724 20.6753 16.8376 20.6797 16.9984 20.6886C19.4056 20.8314 21.5379 22.0077 22.9546 23.781C24.0832 25.1961 24.7616 26.9928 24.7616 28.9455C24.7616 33.5125 21.0657 37.2158 16.5079 37.2158C11.95 37.2158 8.25412 33.5125 8.25412 28.9455Z" fill="url(#paint1_linear_2784_18384)"/>
<path d="M76.0404 20.4588C76.0404 20.6148 75.9834 20.7468 75.8694 20.8548C75.7554 20.9568 75.6234 21.0078 75.4734 21.0078C75.3054 21.0078 75.1704 20.9568 75.0684 20.8548C74.9664 20.7468 74.9154 20.6148 74.9154 20.4588V15.2568C74.9154 15.1008 74.9694 14.9718 75.0774 14.8698C75.1854 14.7618 75.3234 14.7078 75.4914 14.7078C75.6354 14.7078 75.7614 14.7618 75.8694 14.8698C75.9834 14.9718 76.0404 15.1008 76.0404 15.2568V20.4588ZM79.8779 16.1028C80.3219 16.1028 80.6579 16.1958 80.8859 16.3818C81.1199 16.5678 81.2789 16.8168 81.3629 17.1288C81.4529 17.4348 81.4979 17.7768 81.4979 18.1548V20.4588C81.4979 20.6148 81.4469 20.7468 81.3449 20.8548C81.2429 20.9568 81.1139 21.0078 80.9579 21.0078C80.8019 21.0078 80.6729 20.9568 80.5709 20.8548C80.4689 20.7468 80.4179 20.6148 80.4179 20.4588V18.1548C80.4179 17.9568 80.3909 17.7798 80.3369 17.6238C80.2889 17.4618 80.1989 17.3328 80.0669 17.2368C79.9349 17.1408 79.7459 17.0928 79.4999 17.0928C79.2599 17.0928 79.0559 17.1408 78.8879 17.2368C78.7259 17.3328 78.5999 17.4618 78.5099 17.6238C78.4259 17.7798 78.3839 17.9568 78.3839 18.1548V20.4588C78.3839 20.6148 78.3329 20.7468 78.2309 20.8548C78.1289 20.9568 77.9999 21.0078 77.8439 21.0078C77.6879 21.0078 77.5589 20.9568 77.4569 20.8548C77.3549 20.7468 77.3039 20.6148 77.3039 20.4588V16.7418C77.3039 16.5858 77.3549 16.4568 77.4569 16.3548C77.5589 16.2468 77.6879 16.1928 77.8439 16.1928C77.9999 16.1928 78.1289 16.2468 78.2309 16.3548C78.3329 16.4568 78.3839 16.5858 78.3839 16.7418V17.1288L78.2489 17.1018C78.3029 16.9998 78.3809 16.8918 78.4829 16.7778C78.5849 16.6578 78.7049 16.5468 78.8429 16.4448C78.9809 16.3428 79.1369 16.2618 79.3109 16.2018C79.4849 16.1358 79.6739 16.1028 79.8779 16.1028ZM82.7192 16.2828H84.8522C84.9962 16.2828 85.1162 16.3308 85.2122 16.4268C85.3082 16.5228 85.3562 16.6428 85.3562 16.7868C85.3562 16.9248 85.3082 17.0418 85.2122 17.1378C85.1162 17.2278 84.9962 17.2728 84.8522 17.2728H82.7192C82.5752 17.2728 82.4552 17.2248 82.3592 17.1288C82.2632 17.0328 82.2152 16.9128 82.2152 16.7688C82.2152 16.6308 82.2632 16.5168 82.3592 16.4268C82.4552 16.3308 82.5752 16.2828 82.7192 16.2828ZM83.6822 15.1578C83.8382 15.1578 83.9642 15.2118 84.0602 15.3198C84.1622 15.4218 84.2132 15.5508 84.2132 15.7068V19.7118C84.2132 19.7958 84.2282 19.8648 84.2582 19.9188C84.2942 19.9728 84.3392 20.0118 84.3932 20.0358C84.4532 20.0598 84.5162 20.0718 84.5822 20.0718C84.6542 20.0718 84.7202 20.0598 84.7802 20.0358C84.8402 20.0058 84.9092 19.9908 84.9872 19.9908C85.0712 19.9908 85.1462 20.0298 85.2122 20.1078C85.2842 20.1858 85.3202 20.2938 85.3202 20.4318C85.3202 20.5998 85.2272 20.7378 85.0412 20.8458C84.8612 20.9538 84.6662 21.0078 84.4562 21.0078C84.3302 21.0078 84.1892 20.9988 84.0332 20.9808C83.8832 20.9568 83.7392 20.9058 83.6012 20.8278C83.4692 20.7438 83.3582 20.6178 83.2682 20.4498C83.1782 20.2818 83.1332 20.0508 83.1332 19.7568V15.7068C83.1332 15.5508 83.1842 15.4218 83.2862 15.3198C83.3942 15.2118 83.5262 15.1578 83.6822 15.1578ZM88.5719 21.0978C88.0619 21.0978 87.6179 20.9928 87.2399 20.7828C86.8679 20.5668 86.5799 20.2758 86.3759 19.9098C86.1779 19.5438 86.0789 19.1298 86.0789 18.6678C86.0789 18.1278 86.1869 17.6688 86.4029 17.2908C86.6249 16.9068 86.9129 16.6128 87.2669 16.4088C87.6209 16.2048 87.9959 16.1028 88.3919 16.1028C88.6979 16.1028 88.9859 16.1658 89.2559 16.2918C89.5319 16.4178 89.7749 16.5918 89.9849 16.8138C90.1949 17.0298 90.3599 17.2818 90.4799 17.5698C90.6059 17.8578 90.6689 18.1638 90.6689 18.4878C90.6629 18.6318 90.6059 18.7488 90.4979 18.8388C90.3899 18.9288 90.2639 18.9738 90.1199 18.9738H86.6819L86.4119 18.0738H89.7149L89.5169 18.2538V18.0108C89.5049 17.8368 89.4419 17.6808 89.3279 17.5428C89.2199 17.4048 89.0819 17.2968 88.9139 17.2188C88.7519 17.1348 88.5779 17.0928 88.3919 17.0928C88.2119 17.0928 88.0439 17.1168 87.8879 17.1648C87.7319 17.2128 87.5969 17.2938 87.4829 17.4078C87.3689 17.5218 87.2789 17.6748 87.2129 17.8668C87.1469 18.0588 87.1139 18.3018 87.1139 18.5958C87.1139 18.9198 87.1799 19.1958 87.3119 19.4238C87.4499 19.6458 87.6239 19.8168 87.8339 19.9368C88.0499 20.0508 88.2779 20.1078 88.5179 20.1078C88.7399 20.1078 88.9169 20.0898 89.0489 20.0538C89.1809 20.0178 89.2859 19.9758 89.3639 19.9278C89.4479 19.8738 89.5229 19.8288 89.5889 19.7928C89.6969 19.7388 89.7989 19.7118 89.8949 19.7118C90.0269 19.7118 90.1349 19.7568 90.2189 19.8468C90.3089 19.9368 90.3539 20.0418 90.3539 20.1618C90.3539 20.3238 90.2699 20.4708 90.1019 20.6028C89.9459 20.7348 89.7269 20.8518 89.4449 20.9538C89.1629 21.0498 88.8719 21.0978 88.5719 21.0978ZM93.5665 16.1028C93.8185 16.1028 94.0495 16.1418 94.2595 16.2198C94.4695 16.2978 94.6495 16.3968 94.7995 16.5168C94.9555 16.6368 95.0755 16.7598 95.1595 16.8858C95.2495 17.0058 95.2945 17.1078 95.2945 17.1918L95.0605 17.3088V16.6518C95.0605 16.4958 95.1115 16.3668 95.2135 16.2648C95.3155 16.1568 95.4445 16.1028 95.6005 16.1028C95.7565 16.1028 95.8855 16.1538 95.9875 16.2558C96.0895 16.3578 96.1405 16.4898 96.1405 16.6518V20.6568C96.1405 21.1788 96.0265 21.5958 95.7985 21.9078C95.5765 22.2258 95.2825 22.4538 94.9165 22.5918C94.5505 22.7358 94.1575 22.8078 93.7375 22.8078C93.6175 22.8078 93.4615 22.7928 93.2695 22.7628C93.0775 22.7328 92.8945 22.6968 92.7205 22.6548C92.5465 22.6128 92.4145 22.5738 92.3245 22.5378C92.1445 22.4598 92.0185 22.3608 91.9465 22.2408C91.8805 22.1268 91.8685 22.0038 91.9105 21.8718C91.9645 21.6978 92.0515 21.5778 92.1715 21.5118C92.2915 21.4518 92.4175 21.4458 92.5495 21.4938C92.6095 21.5118 92.7085 21.5478 92.8465 21.6018C92.9845 21.6558 93.1345 21.7038 93.2965 21.7458C93.4645 21.7938 93.6115 21.8178 93.7375 21.8178C94.1875 21.8178 94.5205 21.7278 94.7365 21.5478C94.9525 21.3678 95.0605 21.1188 95.0605 20.8008V20.0178L95.1685 20.0988C95.1685 20.1768 95.1265 20.2728 95.0425 20.3868C94.9645 20.4948 94.8535 20.6028 94.7095 20.7108C94.5715 20.8188 94.4065 20.9118 94.2145 20.9898C94.0225 21.0618 93.8185 21.0978 93.6025 21.0978C93.1765 21.0978 92.7925 20.9928 92.4505 20.7828C92.1085 20.5668 91.8385 20.2728 91.6405 19.9008C91.4425 19.5228 91.3435 19.0908 91.3435 18.6048C91.3435 18.1128 91.4425 17.6808 91.6405 17.3088C91.8385 16.9308 92.1055 16.6368 92.4415 16.4268C92.7775 16.2108 93.1525 16.1028 93.5665 16.1028ZM93.7375 17.0928C93.4675 17.0928 93.2305 17.1588 93.0265 17.2908C92.8225 17.4228 92.6635 17.6028 92.5495 17.8308C92.4355 18.0588 92.3785 18.3168 92.3785 18.6048C92.3785 18.8868 92.4355 19.1418 92.5495 19.3698C92.6635 19.5978 92.8225 19.7778 93.0265 19.9098C93.2305 20.0418 93.4675 20.1078 93.7375 20.1078C94.0135 20.1078 94.2535 20.0418 94.4575 19.9098C94.6615 19.7778 94.8205 19.5978 94.9345 19.3698C95.0485 19.1418 95.1055 18.8868 95.1055 18.6048C95.1055 18.3168 95.0485 18.0588 94.9345 17.8308C94.8205 17.6028 94.6615 17.4228 94.4575 17.2908C94.2535 17.1588 94.0135 17.0928 93.7375 17.0928ZM97.8478 21.0078C97.6918 21.0078 97.5628 20.9568 97.4608 20.8548C97.3588 20.7468 97.3078 20.6148 97.3078 20.4588V16.7418C97.3078 16.5858 97.3588 16.4568 97.4608 16.3548C97.5628 16.2468 97.6918 16.1928 97.8478 16.1928C98.0038 16.1928 98.1328 16.2468 98.2348 16.3548C98.3368 16.4568 98.3878 16.5858 98.3878 16.7418V17.5878L98.3248 16.9848C98.3908 16.8408 98.4748 16.7148 98.5768 16.6068C98.6848 16.4928 98.8048 16.3998 98.9368 16.3278C99.0688 16.2498 99.2098 16.1928 99.3598 16.1568C99.5098 16.1208 99.6598 16.1028 99.8098 16.1028C99.9898 16.1028 100.14 16.1538 100.26 16.2558C100.386 16.3578 100.449 16.4778 100.449 16.6158C100.449 16.8138 100.398 16.9578 100.296 17.0478C100.194 17.1318 100.083 17.1738 99.9628 17.1738C99.8488 17.1738 99.7438 17.1528 99.6478 17.1108C99.5578 17.0688 99.4528 17.0478 99.3328 17.0478C99.2248 17.0478 99.1138 17.0748 98.9998 17.1288C98.8918 17.1768 98.7898 17.2548 98.6938 17.3628C98.6038 17.4708 98.5288 17.6058 98.4688 17.7678C98.4148 17.9238 98.3878 18.1098 98.3878 18.3258V20.4588C98.3878 20.6148 98.3368 20.7468 98.2348 20.8548C98.1328 20.9568 98.0038 21.0078 97.8478 21.0078ZM105.047 16.1028C105.203 16.1028 105.332 16.1538 105.434 16.2558C105.536 16.3578 105.587 16.4898 105.587 16.6518V20.4588C105.587 20.6148 105.536 20.7468 105.434 20.8548C105.332 20.9568 105.203 21.0078 105.047 21.0078C104.891 21.0078 104.762 20.9568 104.66 20.8548C104.558 20.7468 104.507 20.6148 104.507 20.4588V20.0178L104.705 20.0988C104.705 20.1768 104.663 20.2728 104.579 20.3868C104.495 20.4948 104.381 20.6028 104.237 20.7108C104.093 20.8188 103.922 20.9118 103.724 20.9898C103.532 21.0618 103.322 21.0978 103.094 21.0978C102.68 21.0978 102.305 20.9928 101.969 20.7828C101.633 20.5668 101.366 20.2728 101.168 19.9008C100.976 19.5228 100.88 19.0908 100.88 18.6048C100.88 18.1128 100.976 17.6808 101.168 17.3088C101.366 16.9308 101.63 16.6368 101.96 16.4268C102.29 16.2108 102.656 16.1028 103.058 16.1028C103.316 16.1028 103.553 16.1418 103.769 16.2198C103.985 16.2978 104.171 16.3968 104.327 16.5168C104.489 16.6368 104.612 16.7598 104.696 16.8858C104.786 17.0058 104.831 17.1078 104.831 17.1918L104.507 17.3088V16.6518C104.507 16.4958 104.558 16.3668 104.66 16.2648C104.762 16.1568 104.891 16.1028 105.047 16.1028ZM103.229 20.1078C103.493 20.1078 103.724 20.0418 103.922 19.9098C104.12 19.7778 104.273 19.5978 104.381 19.3698C104.495 19.1418 104.552 18.8868 104.552 18.6048C104.552 18.3168 104.495 18.0588 104.381 17.8308C104.273 17.6028 104.12 17.4228 103.922 17.2908C103.724 17.1588 103.493 17.0928 103.229 17.0928C102.971 17.0928 102.743 17.1588 102.545 17.2908C102.347 17.4228 102.191 17.6028 102.077 17.8308C101.969 18.0588 101.915 18.3168 101.915 18.6048C101.915 18.8868 101.969 19.1418 102.077 19.3698C102.191 19.5978 102.347 19.7778 102.545 19.9098C102.743 20.0418 102.971 20.1078 103.229 20.1078ZM106.81 16.2828H108.943C109.087 16.2828 109.207 16.3308 109.303 16.4268C109.399 16.5228 109.447 16.6428 109.447 16.7868C109.447 16.9248 109.399 17.0418 109.303 17.1378C109.207 17.2278 109.087 17.2728 108.943 17.2728H106.81C106.666 17.2728 106.546 17.2248 106.45 17.1288C106.354 17.0328 106.306 16.9128 106.306 16.7688C106.306 16.6308 106.354 16.5168 106.45 16.4268C106.546 16.3308 106.666 16.2828 106.81 16.2828ZM107.773 15.1578C107.929 15.1578 108.055 15.2118 108.151 15.3198C108.253 15.4218 108.304 15.5508 108.304 15.7068V19.7118C108.304 19.7958 108.319 19.8648 108.349 19.9188C108.385 19.9728 108.43 20.0118 108.484 20.0358C108.544 20.0598 108.607 20.0718 108.673 20.0718C108.745 20.0718 108.811 20.0598 108.871 20.0358C108.931 20.0058 109 19.9908 109.078 19.9908C109.162 19.9908 109.237 20.0298 109.303 20.1078C109.375 20.1858 109.411 20.2938 109.411 20.4318C109.411 20.5998 109.318 20.7378 109.132 20.8458C108.952 20.9538 108.757 21.0078 108.547 21.0078C108.421 21.0078 108.28 20.9988 108.124 20.9808C107.974 20.9568 107.83 20.9058 107.692 20.8278C107.56 20.7438 107.449 20.6178 107.359 20.4498C107.269 20.2818 107.224 20.0508 107.224 19.7568V15.7068C107.224 15.5508 107.275 15.4218 107.377 15.3198C107.485 15.2118 107.617 15.1578 107.773 15.1578ZM112.663 21.0978C112.153 21.0978 111.709 20.9928 111.331 20.7828C110.959 20.5668 110.671 20.2758 110.467 19.9098C110.269 19.5438 110.17 19.1298 110.17 18.6678C110.17 18.1278 110.278 17.6688 110.494 17.2908C110.716 16.9068 111.004 16.6128 111.358 16.4088C111.712 16.2048 112.087 16.1028 112.483 16.1028C112.789 16.1028 113.077 16.1658 113.347 16.2918C113.623 16.4178 113.866 16.5918 114.076 16.8138C114.286 17.0298 114.451 17.2818 114.571 17.5698C114.697 17.8578 114.76 18.1638 114.76 18.4878C114.754 18.6318 114.697 18.7488 114.589 18.8388C114.481 18.9288 114.355 18.9738 114.211 18.9738H110.773L110.503 18.0738H113.806L113.608 18.2538V18.0108C113.596 17.8368 113.533 17.6808 113.419 17.5428C113.311 17.4048 113.173 17.2968 113.005 17.2188C112.843 17.1348 112.669 17.0928 112.483 17.0928C112.303 17.0928 112.135 17.1168 111.979 17.1648C111.823 17.2128 111.688 17.2938 111.574 17.4078C111.46 17.5218 111.37 17.6748 111.304 17.8668C111.238 18.0588 111.205 18.3018 111.205 18.5958C111.205 18.9198 111.271 19.1958 111.403 19.4238C111.541 19.6458 111.715 19.8168 111.925 19.9368C112.141 20.0508 112.369 20.1078 112.609 20.1078C112.831 20.1078 113.008 20.0898 113.14 20.0538C113.272 20.0178 113.377 19.9758 113.455 19.9278C113.539 19.8738 113.614 19.8288 113.68 19.7928C113.788 19.7388 113.89 19.7118 113.986 19.7118C114.118 19.7118 114.226 19.7568 114.31 19.8468C114.4 19.9368 114.445 20.0418 114.445 20.1618C114.445 20.3238 114.361 20.4708 114.193 20.6028C114.037 20.7348 113.818 20.8518 113.536 20.9538C113.254 21.0498 112.963 21.0978 112.663 21.0978ZM119.645 14.3478C119.801 14.3478 119.93 14.3988 120.032 14.5008C120.134 14.6028 120.185 14.7348 120.185 14.8968V20.4588C120.185 20.6148 120.134 20.7468 120.032 20.8548C119.93 20.9568 119.801 21.0078 119.645 21.0078C119.489 21.0078 119.36 20.9568 119.258 20.8548C119.156 20.7468 119.105 20.6148 119.105 20.4588V20.0178L119.303 20.0988C119.303 20.1768 119.261 20.2728 119.177 20.3868C119.093 20.4948 118.979 20.6028 118.835 20.7108C118.691 20.8188 118.52 20.9118 118.322 20.9898C118.13 21.0618 117.92 21.0978 117.692 21.0978C117.278 21.0978 116.903 20.9928 116.567 20.7828C116.231 20.5668 115.964 20.2728 115.766 19.9008C115.574 19.5228 115.478 19.0908 115.478 18.6048C115.478 18.1128 115.574 17.6808 115.766 17.3088C115.964 16.9308 116.228 16.6368 116.558 16.4268C116.888 16.2108 117.254 16.1028 117.656 16.1028C117.914 16.1028 118.151 16.1418 118.367 16.2198C118.583 16.2978 118.769 16.3968 118.925 16.5168C119.087 16.6368 119.21 16.7598 119.294 16.8858C119.384 17.0058 119.429 17.1078 119.429 17.1918L119.105 17.3088V14.8968C119.105 14.7408 119.156 14.6118 119.258 14.5098C119.36 14.4018 119.489 14.3478 119.645 14.3478ZM117.827 20.1078C118.091 20.1078 118.322 20.0418 118.52 19.9098C118.718 19.7778 118.871 19.5978 118.979 19.3698C119.093 19.1418 119.15 18.8868 119.15 18.6048C119.15 18.3168 119.093 18.0588 118.979 17.8308C118.871 17.6028 118.718 17.4228 118.52 17.2908C118.322 17.1588 118.091 17.0928 117.827 17.0928C117.569 17.0928 117.341 17.1588 117.143 17.2908C116.945 17.4228 116.789 17.6028 116.675 17.8308C116.567 18.0588 116.513 18.3168 116.513 18.6048C116.513 18.8868 116.567 19.1418 116.675 19.3698C116.789 19.5978 116.945 19.7778 117.143 19.9098C117.341 20.0418 117.569 20.1078 117.827 20.1078ZM77.6154 25.7078C78.0474 25.7078 78.4314 25.7888 78.7674 25.9508C79.1034 26.1128 79.3854 26.3408 79.6134 26.6348C79.8474 26.9228 80.0214 27.2588 80.1354 27.6428C80.2554 28.0208 80.3154 28.4258 80.3154 28.8578C80.3154 29.4398 80.2104 29.9708 80.0004 30.4508C79.7904 30.9248 79.4844 31.3028 79.0824 31.5848C78.6864 31.8668 78.1974 32.0078 77.6154 32.0078H75.4644C75.3084 32.0078 75.1764 31.9568 75.0684 31.8548C74.9664 31.7468 74.9154 31.6148 74.9154 31.4588V26.2568C74.9154 26.1008 74.9664 25.9718 75.0684 25.8698C75.1764 25.7618 75.3084 25.7078 75.4644 25.7078H77.6154ZM77.5254 30.9728C77.9034 30.9728 78.2124 30.8768 78.4524 30.6848C78.6924 30.4868 78.8664 30.2288 78.9744 29.9108C79.0884 29.5868 79.1454 29.2358 79.1454 28.8578C79.1454 28.5758 79.1124 28.3088 79.0464 28.0568C78.9864 27.7988 78.8904 27.5738 78.7584 27.3818C78.6264 27.1838 78.4584 27.0278 78.2544 26.9138C78.0504 26.7998 77.8074 26.7428 77.5254 26.7428H75.9504L76.0404 26.6618V31.0718L75.9864 30.9728H77.5254ZM82.276 31.4588C82.276 31.6148 82.225 31.7468 82.123 31.8548C82.021 31.9568 81.892 32.0078 81.736 32.0078C81.58 32.0078 81.451 31.9568 81.349 31.8548C81.247 31.7468 81.196 31.6148 81.196 31.4588V27.7418C81.196 27.5858 81.247 27.4568 81.349 27.3548C81.451 27.2468 81.58 27.1928 81.736 27.1928C81.892 27.1928 82.021 27.2468 82.123 27.3548C82.225 27.4568 82.276 27.5858 82.276 27.7418V31.4588ZM81.727 26.6078C81.523 26.6078 81.379 26.5748 81.295 26.5088C81.211 26.4428 81.169 26.3258 81.169 26.1578V25.9868C81.169 25.8128 81.214 25.6958 81.304 25.6358C81.4 25.5698 81.544 25.5368 81.736 25.5368C81.946 25.5368 82.093 25.5698 82.177 25.6358C82.261 25.7018 82.303 25.8188 82.303 25.9868V26.1578C82.303 26.3318 82.258 26.4518 82.168 26.5178C82.078 26.5778 81.931 26.6078 81.727 26.6078ZM85.3839 27.1028C85.6359 27.1028 85.8669 27.1418 86.0769 27.2198C86.2869 27.2978 86.4669 27.3968 86.6169 27.5168C86.7729 27.6368 86.8929 27.7598 86.9769 27.8858C87.0669 28.0058 87.1119 28.1078 87.1119 28.1918L86.8779 28.3088V27.6518C86.8779 27.4958 86.9289 27.3668 87.0309 27.2648C87.1329 27.1568 87.2619 27.1028 87.4179 27.1028C87.5739 27.1028 87.7029 27.1538 87.8049 27.2558C87.9069 27.3578 87.9579 27.4898 87.9579 27.6518V31.6568C87.9579 32.1788 87.8439 32.5958 87.6159 32.9078C87.3939 33.2258 87.0999 33.4538 86.7339 33.5918C86.3679 33.7358 85.9749 33.8078 85.5549 33.8078C85.4349 33.8078 85.2789 33.7928 85.0869 33.7628C84.8949 33.7328 84.7119 33.6968 84.5379 33.6548C84.3639 33.6128 84.2319 33.5738 84.1419 33.5378C83.9619 33.4598 83.8359 33.3608 83.7639 33.2408C83.6979 33.1268 83.6859 33.0038 83.7279 32.8718C83.7819 32.6978 83.8689 32.5778 83.9889 32.5118C84.1089 32.4518 84.2349 32.4458 84.3669 32.4938C84.4269 32.5118 84.5259 32.5478 84.6639 32.6018C84.8019 32.6558 84.9519 32.7038 85.1139 32.7458C85.2819 32.7938 85.4289 32.8178 85.5549 32.8178C86.0049 32.8178 86.3379 32.7278 86.5539 32.5478C86.7699 32.3678 86.8779 32.1188 86.8779 31.8008V31.0178L86.9859 31.0988C86.9859 31.1768 86.9439 31.2728 86.8599 31.3868C86.7819 31.4948 86.6709 31.6028 86.5269 31.7108C86.3889 31.8188 86.2239 31.9118 86.0319 31.9898C85.8399 32.0618 85.6359 32.0978 85.4199 32.0978C84.9939 32.0978 84.6099 31.9928 84.2679 31.7828C83.9259 31.5668 83.6559 31.2728 83.4579 30.9008C83.2599 30.5228 83.1609 30.0908 83.1609 29.6048C83.1609 29.1128 83.2599 28.6808 83.4579 28.3088C83.6559 27.9308 83.9229 27.6368 84.2589 27.4268C84.5949 27.2108 84.9699 27.1028 85.3839 27.1028ZM85.5549 28.0928C85.2849 28.0928 85.0479 28.1588 84.8439 28.2908C84.6399 28.4228 84.4809 28.6028 84.3669 28.8308C84.2529 29.0588 84.1959 29.3168 84.1959 29.6048C84.1959 29.8868 84.2529 30.1418 84.3669 30.3698C84.4809 30.5978 84.6399 30.7778 84.8439 30.9098C85.0479 31.0418 85.2849 31.1078 85.5549 31.1078C85.8309 31.1078 86.0709 31.0418 86.2749 30.9098C86.4789 30.7778 86.6379 30.5978 86.7519 30.3698C86.8659 30.1418 86.9229 29.8868 86.9229 29.6048C86.9229 29.3168 86.8659 29.0588 86.7519 28.8308C86.6379 28.6028 86.4789 28.4228 86.2749 28.2908C86.0709 28.1588 85.8309 28.0928 85.5549 28.0928ZM90.1422 31.4588C90.1422 31.6148 90.0912 31.7468 89.9892 31.8548C89.8872 31.9568 89.7582 32.0078 89.6022 32.0078C89.4462 32.0078 89.3172 31.9568 89.2152 31.8548C89.1132 31.7468 89.0622 31.6148 89.0622 31.4588V27.7418C89.0622 27.5858 89.1132 27.4568 89.2152 27.3548C89.3172 27.2468 89.4462 27.1928 89.6022 27.1928C89.7582 27.1928 89.8872 27.2468 89.9892 27.3548C90.0912 27.4568 90.1422 27.5858 90.1422 27.7418V31.4588ZM89.5932 26.6078C89.3892 26.6078 89.2452 26.5748 89.1612 26.5088C89.0772 26.4428 89.0352 26.3258 89.0352 26.1578V25.9868C89.0352 25.8128 89.0802 25.6958 89.1702 25.6358C89.2662 25.5698 89.4102 25.5368 89.6022 25.5368C89.8122 25.5368 89.9592 25.5698 90.0432 25.6358C90.1272 25.7018 90.1692 25.8188 90.1692 25.9868V26.1578C90.1692 26.3318 90.1242 26.4518 90.0342 26.5178C89.9442 26.5778 89.7972 26.6078 89.5932 26.6078ZM91.3061 27.2828H93.4391C93.5831 27.2828 93.7031 27.3308 93.7991 27.4268C93.8951 27.5228 93.9431 27.6428 93.9431 27.7868C93.9431 27.9248 93.8951 28.0418 93.7991 28.1378C93.7031 28.2278 93.5831 28.2728 93.4391 28.2728H91.3061C91.1621 28.2728 91.0421 28.2248 90.9461 28.1288C90.8501 28.0328 90.8021 27.9128 90.8021 27.7688C90.8021 27.6308 90.8501 27.5168 90.9461 27.4268C91.0421 27.3308 91.1621 27.2828 91.3061 27.2828ZM92.2691 26.1578C92.4251 26.1578 92.5511 26.2118 92.6471 26.3198C92.7491 26.4218 92.8001 26.5508 92.8001 26.7068V30.7118C92.8001 30.7958 92.8151 30.8648 92.8451 30.9188C92.8811 30.9728 92.9261 31.0118 92.9801 31.0358C93.0401 31.0598 93.1031 31.0718 93.1691 31.0718C93.2411 31.0718 93.3071 31.0598 93.3671 31.0358C93.4271 31.0058 93.4961 30.9908 93.5741 30.9908C93.6581 30.9908 93.7331 31.0298 93.7991 31.1078C93.8711 31.1858 93.9071 31.2938 93.9071 31.4318C93.9071 31.5998 93.8141 31.7378 93.6281 31.8458C93.4481 31.9538 93.2531 32.0078 93.0431 32.0078C92.9171 32.0078 92.7761 31.9988 92.6201 31.9808C92.4701 31.9568 92.3261 31.9058 92.1881 31.8278C92.0561 31.7438 91.9451 31.6178 91.8551 31.4498C91.7651 31.2818 91.7201 31.0508 91.7201 30.7568V26.7068C91.7201 26.5508 91.7711 26.4218 91.8731 26.3198C91.9811 26.2118 92.1131 26.1578 92.2691 26.1578ZM98.8767 27.1028C99.0327 27.1028 99.1617 27.1538 99.2637 27.2558C99.3657 27.3578 99.4167 27.4898 99.4167 27.6518V31.4588C99.4167 31.6148 99.3657 31.7468 99.2637 31.8548C99.1617 31.9568 99.0327 32.0078 98.8767 32.0078C98.7207 32.0078 98.5917 31.9568 98.4897 31.8548C98.3877 31.7468 98.3367 31.6148 98.3367 31.4588V31.0178L98.5347 31.0988C98.5347 31.1768 98.4927 31.2728 98.4087 31.3868C98.3247 31.4948 98.2107 31.6028 98.0667 31.7108C97.9227 31.8188 97.7517 31.9118 97.5537 31.9898C97.3617 32.0618 97.1517 32.0978 96.9237 32.0978C96.5097 32.0978 96.1347 31.9928 95.7987 31.7828C95.4627 31.5668 95.1957 31.2728 94.9977 30.9008C94.8057 30.5228 94.7097 30.0908 94.7097 29.6048C94.7097 29.1128 94.8057 28.6808 94.9977 28.3088C95.1957 27.9308 95.4597 27.6368 95.7897 27.4268C96.1197 27.2108 96.4857 27.1028 96.8877 27.1028C97.1457 27.1028 97.3827 27.1418 97.5987 27.2198C97.8147 27.2978 98.0007 27.3968 98.1567 27.5168C98.3187 27.6368 98.4417 27.7598 98.5257 27.8858C98.6157 28.0058 98.6607 28.1078 98.6607 28.1918L98.3367 28.3088V27.6518C98.3367 27.4958 98.3877 27.3668 98.4897 27.2648C98.5917 27.1568 98.7207 27.1028 98.8767 27.1028ZM97.0587 31.1078C97.3227 31.1078 97.5537 31.0418 97.7517 30.9098C97.9497 30.7778 98.1027 30.5978 98.2107 30.3698C98.3247 30.1418 98.3817 29.8868 98.3817 29.6048C98.3817 29.3168 98.3247 29.0588 98.2107 28.8308C98.1027 28.6028 97.9497 28.4228 97.7517 28.2908C97.5537 28.1588 97.3227 28.0928 97.0587 28.0928C96.8007 28.0928 96.5727 28.1588 96.3747 28.2908C96.1767 28.4228 96.0207 28.6028 95.9067 28.8308C95.7987 29.0588 95.7447 29.3168 95.7447 29.6048C95.7447 29.8868 95.7987 30.1418 95.9067 30.3698C96.0207 30.5978 96.1767 30.7778 96.3747 30.9098C96.5727 31.0418 96.8007 31.1078 97.0587 31.1078ZM101.756 31.4588C101.756 31.6148 101.702 31.7468 101.594 31.8548C101.492 31.9568 101.363 32.0078 101.207 32.0078C101.057 32.0078 100.931 31.9568 100.829 31.8548C100.727 31.7468 100.676 31.6148 100.676 31.4588V25.8968C100.676 25.7408 100.727 25.6118 100.829 25.5098C100.937 25.4018 101.069 25.3478 101.225 25.3478C101.381 25.3478 101.507 25.4018 101.603 25.5098C101.705 25.6118 101.756 25.7408 101.756 25.8968V31.4588ZM80.7114 39.8578C80.7114 40.3078 80.6364 40.7278 80.4864 41.1178C80.3364 41.5078 80.1234 41.8528 79.8474 42.1528C79.5774 42.4468 79.2534 42.6778 78.8754 42.8458C78.5034 43.0138 78.0954 43.0978 77.6514 43.0978C77.2074 43.0978 76.7994 43.0138 76.4274 42.8458C76.0554 42.6778 75.7314 42.4468 75.4554 42.1528C75.1854 41.8528 74.9754 41.5078 74.8254 41.1178C74.6754 40.7278 74.6004 40.3078 74.6004 39.8578C74.6004 39.4078 74.6754 38.9878 74.8254 38.5978C74.9754 38.2078 75.1854 37.8658 75.4554 37.5718C75.7314 37.2718 76.0554 37.0378 76.4274 36.8698C76.7994 36.7018 77.2074 36.6178 77.6514 36.6178C78.0954 36.6178 78.5034 36.7018 78.8754 36.8698C79.2534 37.0378 79.5774 37.2718 79.8474 37.5718C80.1234 37.8658 80.3364 38.2078 80.4864 38.5978C80.6364 38.9878 80.7114 39.4078 80.7114 39.8578ZM79.5414 39.8578C79.5414 39.4558 79.4604 39.0928 79.2984 38.7688C79.1364 38.4388 78.9144 38.1778 78.6324 37.9858C78.3504 37.7938 78.0234 37.6978 77.6514 37.6978C77.2794 37.6978 76.9524 37.7938 76.6704 37.9858C76.3884 38.1778 76.1664 38.4358 76.0044 38.7598C75.8484 39.0838 75.7704 39.4498 75.7704 39.8578C75.7704 40.2598 75.8484 40.6258 76.0044 40.9558C76.1664 41.2798 76.3884 41.5378 76.6704 41.7298C76.9524 41.9218 77.2794 42.0178 77.6514 42.0178C78.0234 42.0178 78.3504 41.9218 78.6324 41.7298C78.9144 41.5378 79.1364 41.2798 79.2984 40.9558C79.4604 40.6258 79.5414 40.2598 79.5414 39.8578ZM84.1475 38.1028C84.5675 38.1028 84.9425 38.2108 85.2725 38.4268C85.6085 38.6368 85.8725 38.9278 86.0645 39.2998C86.2625 39.6718 86.3615 40.1038 86.3615 40.5958C86.3615 41.0878 86.2625 41.5228 86.0645 41.9008C85.8725 42.2728 85.6115 42.5668 85.2815 42.7828C84.9575 42.9928 84.5915 43.0978 84.1835 43.0978C83.9435 43.0978 83.7185 43.0588 83.5085 42.9808C83.2985 42.9028 83.1125 42.8038 82.9505 42.6838C82.7945 42.5638 82.6715 42.4438 82.5815 42.3238C82.4975 42.1978 82.4555 42.0928 82.4555 42.0088L82.7345 41.8918V44.2588C82.7345 44.4148 82.6835 44.5438 82.5815 44.6458C82.4795 44.7538 82.3505 44.8078 82.1945 44.8078C82.0385 44.8078 81.9095 44.7568 81.8075 44.6548C81.7055 44.5528 81.6545 44.4208 81.6545 44.2588V38.7418C81.6545 38.5858 81.7055 38.4568 81.8075 38.3548C81.9095 38.2468 82.0385 38.1928 82.1945 38.1928C82.3505 38.1928 82.4795 38.2468 82.5815 38.3548C82.6835 38.4568 82.7345 38.5858 82.7345 38.7418V39.1828L82.5815 39.1018C82.5815 39.0238 82.6235 38.9308 82.7075 38.8228C82.7915 38.7088 82.9055 38.5978 83.0495 38.4898C83.1935 38.3758 83.3585 38.2828 83.5445 38.2108C83.7365 38.1388 83.9375 38.1028 84.1475 38.1028ZM84.0125 39.0928C83.7485 39.0928 83.5175 39.1588 83.3195 39.2908C83.1215 39.4228 82.9655 39.6028 82.8515 39.8308C82.7435 40.0528 82.6895 40.3078 82.6895 40.5958C82.6895 40.8778 82.7435 41.1358 82.8515 41.3698C82.9655 41.5978 83.1215 41.7778 83.3195 41.9098C83.5175 42.0418 83.7485 42.1078 84.0125 42.1078C84.2765 42.1078 84.5045 42.0418 84.6965 41.9098C84.8945 41.7778 85.0475 41.5978 85.1555 41.3698C85.2695 41.1358 85.3265 40.8778 85.3265 40.5958C85.3265 40.3078 85.2695 40.0528 85.1555 39.8308C85.0475 39.6028 84.8945 39.4228 84.6965 39.2908C84.5045 39.1588 84.2765 39.0928 84.0125 39.0928ZM89.5738 43.0978C89.0638 43.0978 88.6198 42.9928 88.2418 42.7828C87.8698 42.5668 87.5818 42.2758 87.3778 41.9098C87.1798 41.5438 87.0808 41.1298 87.0808 40.6678C87.0808 40.1278 87.1888 39.6688 87.4048 39.2908C87.6268 38.9068 87.9148 38.6128 88.2688 38.4088C88.6228 38.2048 88.9978 38.1028 89.3938 38.1028C89.6998 38.1028 89.9878 38.1658 90.2578 38.2918C90.5338 38.4178 90.7768 38.5918 90.9868 38.8138C91.1968 39.0298 91.3618 39.2818 91.4818 39.5698C91.6078 39.8578 91.6708 40.1638 91.6708 40.4878C91.6648 40.6318 91.6078 40.7488 91.4998 40.8388C91.3918 40.9288 91.2658 40.9738 91.1218 40.9738H87.6838L87.4138 40.0738H90.7168L90.5188 40.2538V40.0108C90.5068 39.8368 90.4438 39.6808 90.3298 39.5428C90.2218 39.4048 90.0838 39.2968 89.9158 39.2188C89.7538 39.1348 89.5798 39.0928 89.3938 39.0928C89.2138 39.0928 89.0458 39.1168 88.8898 39.1648C88.7338 39.2128 88.5988 39.2938 88.4848 39.4078C88.3708 39.5218 88.2808 39.6748 88.2148 39.8668C88.1488 40.0588 88.1158 40.3018 88.1158 40.5958C88.1158 40.9198 88.1818 41.1958 88.3138 41.4238C88.4518 41.6458 88.6258 41.8168 88.8358 41.9368C89.0518 42.0508 89.2798 42.1078 89.5198 42.1078C89.7418 42.1078 89.9188 42.0898 90.0508 42.0538C90.1828 42.0178 90.2878 41.9758 90.3658 41.9278C90.4498 41.8738 90.5248 41.8288 90.5908 41.7928C90.6988 41.7388 90.8008 41.7118 90.8968 41.7118C91.0288 41.7118 91.1368 41.7568 91.2208 41.8468C91.3108 41.9368 91.3558 42.0418 91.3558 42.1618C91.3558 42.3238 91.2718 42.4708 91.1038 42.6028C90.9478 42.7348 90.7288 42.8518 90.4468 42.9538C90.1648 43.0498 89.8738 43.0978 89.5738 43.0978ZM93.1544 43.0078C92.9984 43.0078 92.8694 42.9568 92.7674 42.8548C92.6654 42.7468 92.6144 42.6148 92.6144 42.4588V38.7418C92.6144 38.5858 92.6654 38.4568 92.7674 38.3548C92.8694 38.2468 92.9984 38.1928 93.1544 38.1928C93.3104 38.1928 93.4394 38.2468 93.5414 38.3548C93.6434 38.4568 93.6944 38.5858 93.6944 38.7418V39.5878L93.6314 38.9848C93.6974 38.8408 93.7814 38.7148 93.8834 38.6068C93.9914 38.4928 94.1114 38.3998 94.2434 38.3278C94.3754 38.2498 94.5164 38.1928 94.6664 38.1568C94.8164 38.1208 94.9664 38.1028 95.1164 38.1028C95.2964 38.1028 95.4464 38.1538 95.5664 38.2558C95.6924 38.3578 95.7554 38.4778 95.7554 38.6158C95.7554 38.8138 95.7044 38.9578 95.6024 39.0478C95.5004 39.1318 95.3894 39.1738 95.2694 39.1738C95.1554 39.1738 95.0504 39.1528 94.9544 39.1108C94.8644 39.0688 94.7594 39.0478 94.6394 39.0478C94.5314 39.0478 94.4204 39.0748 94.3064 39.1288C94.1984 39.1768 94.0964 39.2548 94.0004 39.3628C93.9104 39.4708 93.8354 39.6058 93.7754 39.7678C93.7214 39.9238 93.6944 40.1098 93.6944 40.3258V42.4588C93.6944 42.6148 93.6434 42.7468 93.5414 42.8548C93.4394 42.9568 93.3104 43.0078 93.1544 43.0078ZM100.353 38.1028C100.509 38.1028 100.638 38.1538 100.74 38.2558C100.842 38.3578 100.893 38.4898 100.893 38.6518V42.4588C100.893 42.6148 100.842 42.7468 100.74 42.8548C100.638 42.9568 100.509 43.0078 100.353 43.0078C100.197 43.0078 100.068 42.9568 99.9663 42.8548C99.8643 42.7468 99.8133 42.6148 99.8133 42.4588V42.0178L100.011 42.0988C100.011 42.1768 99.9693 42.2728 99.8853 42.3868C99.8013 42.4948 99.6873 42.6028 99.5433 42.7108C99.3993 42.8188 99.2283 42.9118 99.0303 42.9898C98.8383 43.0618 98.6283 43.0978 98.4003 43.0978C97.9863 43.0978 97.6113 42.9928 97.2753 42.7828C96.9393 42.5668 96.6723 42.2728 96.4743 41.9008C96.2823 41.5228 96.1863 41.0908 96.1863 40.6048C96.1863 40.1128 96.2823 39.6808 96.4743 39.3088C96.6723 38.9308 96.9363 38.6368 97.2663 38.4268C97.5963 38.2108 97.9623 38.1028 98.3643 38.1028C98.6223 38.1028 98.8593 38.1418 99.0753 38.2198C99.2913 38.2978 99.4773 38.3968 99.6333 38.5168C99.7953 38.6368 99.9183 38.7598 100.002 38.8858C100.092 39.0058 100.137 39.1078 100.137 39.1918L99.8133 39.3088V38.6518C99.8133 38.4958 99.8643 38.3668 99.9663 38.2648C100.068 38.1568 100.197 38.1028 100.353 38.1028ZM98.5353 42.1078C98.7993 42.1078 99.0303 42.0418 99.2283 41.9098C99.4263 41.7778 99.5793 41.5978 99.6873 41.3698C99.8013 41.1418 99.8583 40.8868 99.8583 40.6048C99.8583 40.3168 99.8013 40.0588 99.6873 39.8308C99.5793 39.6028 99.4263 39.4228 99.2283 39.2908C99.0303 39.1588 98.7993 39.0928 98.5353 39.0928C98.2773 39.0928 98.0493 39.1588 97.8513 39.2908C97.6533 39.4228 97.4973 39.6028 97.3833 39.8308C97.2753 40.0588 97.2213 40.3168 97.2213 40.6048C97.2213 40.8868 97.2753 41.1418 97.3833 41.3698C97.4973 41.5978 97.6533 41.7778 97.8513 41.9098C98.0493 42.0418 98.2773 42.1078 98.5353 42.1078ZM102.117 38.2828H104.25C104.394 38.2828 104.514 38.3308 104.61 38.4268C104.706 38.5228 104.754 38.6428 104.754 38.7868C104.754 38.9248 104.706 39.0418 104.61 39.1378C104.514 39.2278 104.394 39.2728 104.25 39.2728H102.117C101.973 39.2728 101.853 39.2248 101.757 39.1288C101.661 39.0328 101.613 38.9128 101.613 38.7688C101.613 38.6308 101.661 38.5168 101.757 38.4268C101.853 38.3308 101.973 38.2828 102.117 38.2828ZM103.08 37.1578C103.236 37.1578 103.362 37.2118 103.458 37.3198C103.56 37.4218 103.611 37.5508 103.611 37.7068V41.7118C103.611 41.7958 103.626 41.8648 103.656 41.9188C103.692 41.9728 103.737 42.0118 103.791 42.0358C103.851 42.0598 103.914 42.0718 103.98 42.0718C104.052 42.0718 104.118 42.0598 104.178 42.0358C104.238 42.0058 104.307 41.9908 104.385 41.9908C104.469 41.9908 104.544 42.0298 104.61 42.1078C104.682 42.1858 104.718 42.2938 104.718 42.4318C104.718 42.5998 104.625 42.7378 104.439 42.8458C104.259 42.9538 104.064 43.0078 103.854 43.0078C103.728 43.0078 103.587 42.9988 103.431 42.9808C103.281 42.9568 103.137 42.9058 102.999 42.8278C102.867 42.7438 102.756 42.6178 102.666 42.4498C102.576 42.2818 102.531 42.0508 102.531 41.7568V37.7068C102.531 37.5508 102.582 37.4218 102.684 37.3198C102.792 37.2118 102.924 37.1578 103.08 37.1578ZM106.762 42.4588C106.762 42.6148 106.711 42.7468 106.609 42.8548C106.507 42.9568 106.378 43.0078 106.222 43.0078C106.066 43.0078 105.937 42.9568 105.835 42.8548C105.733 42.7468 105.682 42.6148 105.682 42.4588V38.7418C105.682 38.5858 105.733 38.4568 105.835 38.3548C105.937 38.2468 106.066 38.1928 106.222 38.1928C106.378 38.1928 106.507 38.2468 106.609 38.3548C106.711 38.4568 106.762 38.5858 106.762 38.7418V42.4588ZM106.213 37.6078C106.009 37.6078 105.865 37.5748 105.781 37.5088C105.697 37.4428 105.655 37.3258 105.655 37.1578V36.9868C105.655 36.8128 105.7 36.6958 105.79 36.6358C105.886 36.5698 106.03 36.5368 106.222 36.5368C106.432 36.5368 106.579 36.5698 106.663 36.6358C106.747 36.7018 106.789 36.8188 106.789 36.9868V37.1578C106.789 37.3318 106.744 37.4518 106.654 37.5178C106.564 37.5778 106.417 37.6078 106.213 37.6078ZM112.543 40.6048C112.543 41.0968 112.432 41.5318 112.21 41.9098C111.994 42.2818 111.7 42.5728 111.328 42.7828C110.962 42.9928 110.551 43.0978 110.095 43.0978C109.639 43.0978 109.225 42.9928 108.853 42.7828C108.487 42.5728 108.193 42.2818 107.971 41.9098C107.755 41.5318 107.647 41.0968 107.647 40.6048C107.647 40.1128 107.755 39.6808 107.971 39.3088C108.193 38.9308 108.487 38.6368 108.853 38.4268C109.225 38.2108 109.639 38.1028 110.095 38.1028C110.551 38.1028 110.962 38.2108 111.328 38.4268C111.7 38.6368 111.994 38.9308 112.21 39.3088C112.432 39.6808 112.543 40.1128 112.543 40.6048ZM111.463 40.6048C111.463 40.2988 111.4 40.0348 111.274 39.8128C111.154 39.5848 110.989 39.4078 110.779 39.2818C110.575 39.1558 110.347 39.0928 110.095 39.0928C109.843 39.0928 109.612 39.1558 109.402 39.2818C109.198 39.4078 109.033 39.5848 108.907 39.8128C108.787 40.0348 108.727 40.2988 108.727 40.6048C108.727 40.9048 108.787 41.1688 108.907 41.3968C109.033 41.6188 109.198 41.7928 109.402 41.9188C109.612 42.0448 109.843 42.1078 110.095 42.1078C110.347 42.1078 110.575 42.0448 110.779 41.9188C110.989 41.7928 111.154 41.6188 111.274 41.3968C111.4 41.1688 111.463 40.9048 111.463 40.6048ZM116.062 38.1028C116.506 38.1028 116.842 38.1958 117.07 38.3818C117.304 38.5678 117.463 38.8168 117.547 39.1288C117.637 39.4348 117.682 39.7768 117.682 40.1548V42.4588C117.682 42.6148 117.631 42.7468 117.529 42.8548C117.427 42.9568 117.298 43.0078 117.142 43.0078C116.986 43.0078 116.857 42.9568 116.755 42.8548C116.653 42.7468 116.602 42.6148 116.602 42.4588V40.1548C116.602 39.9568 116.575 39.7798 116.521 39.6238C116.473 39.4618 116.383 39.3328 116.251 39.2368C116.119 39.1408 115.93 39.0928 115.684 39.0928C115.444 39.0928 115.24 39.1408 115.072 39.2368C114.91 39.3328 114.784 39.4618 114.694 39.6238C114.61 39.7798 114.568 39.9568 114.568 40.1548V42.4588C114.568 42.6148 114.517 42.7468 114.415 42.8548C114.313 42.9568 114.184 43.0078 114.028 43.0078C113.872 43.0078 113.743 42.9568 113.641 42.8548C113.539 42.7468 113.488 42.6148 113.488 42.4588V38.7418C113.488 38.5858 113.539 38.4568 113.641 38.3548C113.743 38.2468 113.872 38.1928 114.028 38.1928C114.184 38.1928 114.313 38.2468 114.415 38.3548C114.517 38.4568 114.568 38.5858 114.568 38.7418V39.1288L114.433 39.1018C114.487 38.9998 114.565 38.8918 114.667 38.7778C114.769 38.6578 114.889 38.5468 115.027 38.4448C115.165 38.3428 115.321 38.2618 115.495 38.2018C115.669 38.1358 115.858 38.1028 116.062 38.1028Z" fill="#B466FB"/>
<defs>
<linearGradient id="paint0_linear_2784_18384" x1="37.9756" y1="31.5326" x2="61.914" y2="16.9383" gradientUnits="userSpaceOnUse">
<stop stop-color="#D09FFD"/>
<stop offset="0.324407" stop-color="#D09FFD"/>
<stop offset="1" stop-color="#982EFA"/>
</linearGradient>
<linearGradient id="paint1_linear_2784_18384" x1="-0.474134" y1="43.2092" x2="58.0487" y2="12.7296" gradientUnits="userSpaceOnUse">
<stop stop-color="#982EFA"/>
<stop offset="4.5e-07" stop-color="#982EFA"/>
<stop offset="0.614114" stop-color="#982EFA"/>
<stop offset="1" stop-color="#D09FFD"/>
</linearGradient>
</defs>
</svg>
